<?xml version="1.0" encoding="utf-8"?>
<!-- Generator: Adobe Illustrator 22.1.0, SVG Export Plug-In . SVG Version: 6.00 Build 0)  -->
<svg version="1.1" id="Capa_1" xmlns="http://www.w3.org/2000/svg" xmlns:xlink="http://www.w3.org/1999/xlink" x="0px" y="0px"
	 viewBox="0 0 419.7 230.1" style="enable-background:new 0 0 419.7 230.1;" xml:space="preserve">
<style type="text/css">
	.st0{fill:#C40E91;}
	.st1{fill:#F6C500;}
	.st2{fill:#471473;}
	.st3{fill:#FFFFFF;}
	.st4{fill:none;}
</style>
<g>
	<path class="st0" d="M367.1,216.6c0,7.5-6.1,13.5-13.5,13.5l-340.1,0c-7.5,0-13.5-6.1-13.5-13.5v-203C0,6.1,6.1,0,13.5,0h340.1
		c7.5,0,13.5,6.1,13.5,13.5V216.6z"/>
	<path class="st1" d="M379.1,216.6c0,7.5-6.1,13.5-13.5,13.5H40.6c-7.5,0-13.5-6.1-13.5-13.5v-203C27.1,6.1,33.1,0,40.6,0h324.9
		c7.5,0,13.5,6.1,13.5,13.5V216.6z"/>
	<path class="st2" d="M419.7,216.6c0,7.5-6.1,13.5-13.5,13.5H67.7c-7.5,0-13.5-6.1-13.5-13.5v-203C54.1,6.1,60.2,0,67.7,0h338.4
		c7.5,0,13.5,6.1,13.5,13.5V216.6z"/>
	<g>
		<path class="st3" d="M115,108.3c-1.8,0-3-0.7-3.6-2.2L94.1,57.4c-0.3-1-0.3-1.7,0.1-2.3c0.4-0.6,1.1-0.9,2-0.9h11.2
			c1.8,0,2.9,0.9,3.4,2.5l6.4,21.4l3.8,14h0.3l3.7-14l6.4-21.4c0.5-1.7,1.7-2.5,3.4-2.5H146c0.9,0,1.6,0.3,2,0.9
			c0.4,0.6,0.4,1.4,0,2.3l-17.3,48.7c-0.6,1.5-1.8,2.2-3.6,2.2H115z"/>
		<path class="st3" d="M193.1,94.8c1.8-0.8,3-0.2,3.7,1.7l1.8,5.4c0.5,1.5-0.1,2.7-1.7,3.5c-5.6,2.8-11.7,4.2-18.5,4.2
			c-9.4,0-16.7-2.5-21.9-7.4c-5.2-4.9-7.8-11.9-7.8-20.9c0-9,2.4-16,7.2-20.9c4.8-4.9,11.4-7.4,19.6-7.4c8,0,14.3,2.4,18.7,7.1
			c4.5,4.8,6.7,11.1,6.7,19v5c0,1.8-1,2.7-2.9,2.7H165c0.6,3.5,2.2,6.2,4.7,8.1c2.5,1.9,5.9,2.9,10,2.9
			C184.3,97.8,188.8,96.8,193.1,94.8z M164.5,77.4h21.7v-0.7c0-3.8-0.9-6.8-2.7-8.9c-1.8-2.1-4.3-3.2-7.7-3.2
			C168.9,64.6,165.1,68.9,164.5,77.4z"/>
		<path class="st3" d="M258.8,105.5c0,1.9-0.9,2.8-2.7,2.8h-11c-1.9,0-2.9-0.9-2.9-2.8V76.3c0-3.3-0.6-5.7-1.8-7.2
			c-1.2-1.6-3.3-2.3-6.2-2.3c-3.2,0-5.6,1-7.2,2.9c-1.6,1.9-2.4,4.6-2.4,7.9v27.9c0,1.9-0.9,2.8-2.9,2.8h-11c-1.8,0-2.7-0.9-2.7-2.8
			V56.9c0-1.8,0.9-2.8,2.7-2.8h9.9c1.7,0,2.6,0.7,2.8,2.2l0.8,4.6c3.5-5.4,9-8,16.6-8c12,0,18,6.8,18,20.3V105.5z"/>
		<path class="st3" d="M304.2,101.6c-1.5,2.4-3.8,4.4-6.9,5.8c-3.1,1.4-6.3,2.1-9.7,2.1c-7.1,0-12.6-2.4-16.5-7.1
			c-3.9-4.8-5.8-11.8-5.8-21.1c0-9.4,1.9-16.4,5.8-21.2c3.9-4.8,9.4-7.1,16.5-7.1c3.3,0,6.4,0.7,9.4,2c3,1.3,5.2,3.1,6.6,5.5V39.2
			c0-1.8,0.9-2.7,2.7-2.7h11c1.9,0,2.8,0.9,2.8,2.7v66.3c0,1.9-0.9,2.8-2.8,2.8h-9.8c-1.6,0-2.6-0.7-2.8-2.2L304.2,101.6z
			 M292.8,65.9c-3.5,0-6.2,1.2-7.9,3.6c-1.8,2.4-2.6,6.3-2.6,11.8c0,5.4,0.9,9.2,2.6,11.7c1.8,2.4,4.4,3.6,7.9,3.6
			c7.3,0,10.9-5.1,10.9-15.3C303.7,71,300.1,65.9,292.8,65.9z"/>
		<path class="st3" d="M371.2,94.8c1.8-0.8,3-0.2,3.7,1.7l1.8,5.4c0.5,1.5-0.1,2.7-1.7,3.5c-5.6,2.8-11.7,4.2-18.5,4.2
			c-9.4,0-16.7-2.5-21.9-7.4c-5.2-4.9-7.8-11.9-7.8-20.9c0-9,2.4-16,7.2-20.9c4.8-4.9,11.4-7.4,19.7-7.4c8,0,14.2,2.4,18.7,7.1
			c4.5,4.8,6.7,11.1,6.7,19v5c0,1.8-0.9,2.7-2.8,2.7h-33.1c0.6,3.5,2.2,6.2,4.7,8.1c2.5,1.9,5.9,2.9,10,2.9
			C362.5,97.8,367,96.8,371.2,94.8z M342.6,77.4h21.7v-0.7c0-3.8-0.9-6.8-2.6-8.9c-1.8-2.1-4.3-3.2-7.7-3.2
			C347.1,64.6,343.3,68.9,342.6,77.4z"/>
		<path class="st3" d="M239.7,186.7c0,1.9-0.9,2.9-2.7,2.9h-10.8c-1.8,0-2.7-0.9-2.7-2.9V157c0-3.1-0.6-5.3-1.6-6.9
			c-1.1-1.5-2.9-2.3-5.4-2.3c-2.9,0-5.2,1-6.8,2.9c-1.6,1.9-2.4,4.4-2.4,7.5v28.4c0,1.9-0.9,2.9-2.9,2.9h-10.8
			c-1.9,0-2.8-0.9-2.8-2.9v-48.6c0-1.8,0.9-2.8,2.8-2.8h9.9c1.7,0,2.7,0.7,2.9,2.2l0.8,4.6c3.5-5.4,8.9-8,16-8
			c7.5,0,12.6,2.8,15.1,8.5c3.7-5.7,9.5-8.5,17.4-8.5c11.2,0,16.8,6.6,16.8,20v32.6c0,1.9-0.9,2.9-2.8,2.9h-10.9
			c-1.9,0-2.8-0.9-2.8-2.9v-29.5c0-6.2-2.4-9.3-7.1-9.3c-2.9,0-5.2,0.9-6.7,2.8c-1.6,1.9-2.4,4.3-2.4,7.3V186.7z"/>
		<path class="st3" d="M329.6,186.7c0,1.9-0.9,2.9-2.7,2.9h-9.3c-1.6,0-2.6-0.7-2.8-2.2l-0.6-4.5c-3.7,5-9.6,7.5-17.9,7.5
			c-5.2,0-9.4-1.4-12.6-4.1c-3.2-2.7-4.7-6.7-4.7-11.8c0-3,0.6-5.6,1.7-7.7c1.1-2.2,2.6-3.9,4.4-5.2c1.8-1.3,4.3-2.3,7.4-3.1
			c3.1-0.7,6.3-1.3,9.4-1.6c3.2-0.3,7-0.5,11.7-0.6v-1.9c0-5.1-3.5-7.6-10.5-7.6c-4.7,0-9.6,1-14.7,2.8c-1.8,0.7-2.9,0.2-3.5-1.7
			l-2-6.3c-0.5-1.6,0-2.7,1.6-3.5c6.1-2.6,13.1-4,21-4c16.1,0,24.1,6.4,24.1,19.3V186.7z M313.6,165.2c-6.6,0.1-11.4,0.8-14.4,1.9
			c-3,1.1-4.5,3.2-4.5,6.3c0,1.9,0.7,3.4,2,4.6c1.4,1.2,3.2,1.7,5.6,1.7c3.7,0,6.5-0.9,8.4-2.8c1.9-1.9,2.8-4.3,2.8-7.4V165.2z"/>
		<path class="st3" d="M356.1,190.6c-6.8,0-12.8-1-17.9-3c-1.7-0.7-2.3-1.8-1.8-3.4l1.7-5.9c0.4-1.8,1.6-2.3,3.5-1.7
			c4,1.3,7.9,1.9,11.7,1.9c6.4,0,9.6-1.5,9.6-4.6c0-1.5-0.7-2.7-2.2-3.6c-1.5-0.9-3.9-1.9-7.3-3c-5.6-1.9-9.3-3.6-11.3-5.1
			c-3.7-2.8-5.6-6.9-5.6-12.4c0-5.3,1.9-9.3,5.6-11.9c3.8-2.6,9.1-4,15.9-4c6.9,0,12.5,0.9,16.8,2.7c1.7,0.7,2.3,1.8,1.8,3.5
			l-1.7,5.7c-0.5,1.8-1.7,2.4-3.5,1.8c-3.7-1.2-7.4-1.7-10.9-1.7c-5.2,0-7.8,1.5-7.8,4.4c0,1.5,0.7,2.7,2.2,3.6c1.5,0.9,4,2,7.5,3.3
			c2.8,1,5,1.9,6.6,2.6c1.6,0.7,3.3,1.8,5,3.1c1.8,1.3,3.1,2.9,3.9,4.8c0.8,1.9,1.2,4.1,1.2,6.7
			C379.1,185.3,371.4,190.6,356.1,190.6z"/>
		<path class="st3" d="M302.6,118.9c0.5-1.3,1.6-1.9,3-1.9h12c0.9,0,1.4,0.3,1.6,1.1c0.2,0.7-0.1,1.3-0.7,1.9l-8.6,8.6
			c-0.9,0.9-2.1,1.4-3.6,1.4h-6.2c-0.7,0-1.3-0.2-1.6-0.7c-0.3-0.4-0.3-1-0.1-1.6L302.6,118.9z"/>
	</g>
	<rect x="320.2" y="77.3" class="st4" width="6.5" height="10.7"/>
	<rect x="258.8" y="77.3" class="st4" width="6.5" height="10.7"/>
	<rect x="201.4" y="77.3" class="st4" width="6.5" height="10.7"/>
	<rect x="272.4" y="168.8" class="st4" width="6.5" height="10.7"/>
</g>
</svg>
